<?xml version="1.0" encoding="UTF-8" standalone="no"?>
<svg
   xmlns:dc="http://purl.org/dc/elements/1.1/"
   xmlns:cc="http://creativecommons.org/ns#"
   xmlns:rdf="http://www.w3.org/1999/02/22-rdf-syntax-ns#"
   xmlns:svg="http://www.w3.org/2000/svg"
   xmlns="http://www.w3.org/2000/svg"
   xmlns:sodipodi="http://sodipodi.sourceforge.net/DTD/sodipodi-0.dtd"
   xmlns:inkscape="http://www.inkscape.org/namespaces/inkscape"
   inkscape:version="1.1-dev (ddb55ca, 2020-02-02)"
   height="250.2"
   width="639.20001"
   sodipodi:docname="census_2021_logo.svg"
   xml:space="preserve"
   viewBox="0 0 639.20001 250.2"
   y="0px"
   x="0px"
   id="Layer_1"
   version="1.1"><metadata
   id="metadata94"><rdf:RDF><cc:Work
       rdf:about=""><dc:format>image/svg+xml</dc:format><dc:type
         rdf:resource="http://purl.org/dc/dcmitype/StillImage" /><dc:title></dc:title></cc:Work></rdf:RDF></metadata><defs
   id="defs92" /><sodipodi:namedview
   inkscape:current-layer="Layer_1"
   inkscape:window-maximized="1"
   inkscape:window-y="23"
   inkscape:window-x="0"
   inkscape:cy="89.058573"
   inkscape:cx="294.74384"
   inkscape:zoom="0.80462963"
   inkscape:pagecheckerboard="true"
   showgrid="false"
   id="namedview90"
   inkscape:window-height="1035"
   inkscape:window-width="1920"
   inkscape:pageshadow="2"
   inkscape:pageopacity="0"
   guidetolerance="10"
   gridtolerance="10"
   objecttolerance="10"
   borderopacity="1"
   bordercolor="#666666"
   pagecolor="#ffffff" />
<style
   id="style71"
   type="text/css">
	.st0{fill:#FFFFFF;}
	.st1{opacity:0.7;fill:#FFFFFF;}
</style>
<g
   transform="translate(-640.4,-414.9)"
   id="g87">
	<path
   inkscape:connector-curvature="0"
   id="path73"
   d="M 772.4,455.9 H 825 c -4.6,-10 -14.6,-16.9 -26.3,-16.9 -11.7,0 -21.7,6.9 -26.3,16.9 m 26.3,65 c -29.2,0 -53,-23.8 -53,-53 0,-29.2 23.8,-53 53,-53 29.2,0 53,23.8 53,53 0,6.6 -5.4,12 -12,12 h -67.2 c 4.6,10 14.6,16.9 26.3,16.9 6.6,0 12,5.4 12,12 0,6.6 -5.5,12.1 -12.1,12.1"
   class="st0" />
	<path
   inkscape:connector-curvature="0"
   id="path75"
   d="m 956.9,520.2 c -6.6,0 -12,-5.4 -12,-12 v -40.3 c 0,-15.9 -13,-28.9 -28.9,-28.9 -15.9,0 -28.9,13 -28.9,28.9 v 40.3 c 0,6.6 -5.4,12 -12,12 -6.6,0 -12,-5.4 -12,-12 v -40.3 c 0,-29.2 23.8,-53 53,-53 29.2,0 53,23.8 53,53 v 40.3 c -0.1,6.6 -5.5,12 -12.2,12"
   class="st0" />
	<path
   inkscape:connector-curvature="0"
   id="path77"
   d="m 1131.1,520.2 c -29.2,0 -53,-23.8 -53,-53 V 427 c 0,-6.6 5.4,-12 12,-12 6.7,0 12,5.4 12,12 v 40.3 c 0,15.9 13,28.9 28.9,28.9 15.9,0 28.9,-13 28.9,-28.9 V 427 c 0,-6.6 5.4,-12 12,-12 6.6,0 12,5.4 12,12 v 40.3 c 0.2,29.1 -23.6,52.9 -52.8,52.9"
   class="st0" />
	<path
   inkscape:connector-curvature="0"
   id="path79"
   d="m 1031.8,458.1 c -17,-3.6 -23.8,-5.1 -23.8,-11.3 0,-6.2 8.7,-9.6 18.3,-9.6 5.1,0 9.9,1.2 13.9,2.8 1.6,0.6 3.2,1.1 5,1.1 6.2,0 11.2,-5 11.2,-11.2 0,-5.1 -3.3,-9.5 -7.9,-10.9 -6,-2.2 -13.6,-4 -22.2,-4 -27.6,0 -43.4,15.7 -43.4,31.5 0,19.1 17.4,27.6 37.4,31.9 15.3,3.2 20,4.5 20,11.1 0,6.2 -8.7,9.1 -19.1,9.1 -9.4,0 -16.4,-3.8 -22.6,-7 -0.1,0 0,0 0,0 -1.3,-0.5 -3,-1 -4.5,-1 -6.3,0 -11.4,5.1 -11.4,11.4 0,4.5 2.6,8.4 6.4,10.2 7.7,4.4 18.7,8.7 33,8.7 25.7,0 44,-13.8 44,-31.1 -0.1,-20.8 -14.3,-27.4 -34.3,-31.7"
   class="st0" />
	<path
   inkscape:connector-curvature="0"
   id="path81"
   d="m 1245.4,458.1 c -17,-3.6 -23.8,-5.1 -23.8,-11.3 0,-6.2 8.7,-9.6 18.3,-9.6 5.1,0 9.9,1.2 13.9,2.8 1.6,0.6 3.2,1.1 5,1.1 6.2,0 11.2,-5 11.2,-11.2 0,-5.1 -3.3,-9.3 -7.9,-10.9 -6,-2.2 -13.6,-4 -22.2,-4 -27.6,0 -43.4,15.7 -43.4,31.5 0,19.1 17.4,27.6 37.4,31.9 15.3,3.2 20,4.5 20,11.1 0,6.2 -8.7,9.1 -19.1,9.1 -9.4,0 -16.6,-3.9 -22.9,-7.1 -0.1,-0.1 0,0 0,0 -1.3,-0.5 -2.8,-0.9 -4.3,-0.9 -6.3,0 -11.4,5.1 -11.4,11.4 0,4.5 2.7,8.3 6.4,10.2 7.7,4.4 18.7,8.7 33,8.7 25.7,0 44,-13.8 44,-31.1 0,-20.8 -14.2,-27.4 -34.2,-31.7"
   class="st0" />
	<path
   inkscape:connector-curvature="0"
   id="path83"
   d="m 693.4,520.9 c -29.2,0 -53,-23.8 -53,-53 0,-29.2 23.8,-53 53,-53 14.6,0 28.7,6.2 38.7,16.9 4.5,4.9 4.3,12.5 -0.6,17 -4.9,4.5 -12.5,4.3 -17,-0.6 -5.5,-6 -13.1,-9.2 -21.1,-9.2 -15.9,0 -28.9,13 -28.9,28.9 0,15.9 13,28.9 28.9,28.9 8.1,0 15.6,-3.3 21.1,-9.3 4.5,-4.9 12.1,-5.1 17,-0.6 4.9,4.5 5.1,12.1 0.6,17 -10,10.8 -24.1,17 -38.7,17"
   class="st0" />
	<path
   inkscape:connector-curvature="0"
   id="path85"
   d="m 648.8,654.3 v -3.9 c 0,-20.8 16.1,-30 31.3,-37.5 13.3,-6.6 25.2,-11.6 25.2,-22.5 0,-10.5 -7.7,-16.7 -20.6,-16.7 -14.8,0 -21.9,9.1 -24.7,19.4 0,0.5 -10.6,0.6 -10.6,-7.8 0,-5.3 3.1,-11.6 9.2,-16.6 6.1,-5 15.3,-8.8 27.2,-8.8 22,0 35.3,11.4 35.3,30.2 0,18.1 -14.4,25.3 -29.7,32.3 -13.3,5.9 -24.2,11.6 -26.9,22.3 -0.3,1.4 -0.6,3 -0.6,4.5 h 51.3 c 5.3,0 7.7,2.2 7.7,6.3 v 0.9 c 0,4.2 -2.3,6.6 -7.7,6.6 h -56.3 c -7.1,0 -10.1,-2.3 -10.1,-8.7 z M 734,617.7 v -10.3 c 0,-29.2 16.1,-47.5 42,-47.5 26.3,0 42.2,18.1 42.2,47.3 v 10.2 c 0,29.2 -16.1,47.7 -42.2,47.7 -26.2,0 -42,-18.1 -42,-47.4 z m 68.1,0.5 v -11.3 c 0,-21.3 -9.7,-33.8 -26.1,-33.8 -16.4,0 -25.8,12.2 -25.8,33.4 V 618 c 0,21.3 9.5,33.4 25.8,33.4 16.8,0.1 26.1,-12 26.1,-33.2 z m 29.6,36.1 v -3.9 c 0,-20.8 16.1,-30 31.3,-37.5 13.3,-6.6 25.2,-11.6 25.2,-22.5 0,-10.5 -7.7,-16.7 -20.6,-16.7 -14.8,0 -21.9,9.1 -24.7,19.4 0,0.5 -10.6,0.6 -10.6,-7.8 0,-5.3 3.1,-11.6 9.2,-16.6 6.1,-5 15.3,-8.8 27.2,-8.8 22,0 35.3,11.4 35.3,30.2 0,18.1 -14.4,25.3 -29.7,32.3 -13.3,5.9 -24.2,11.6 -26.9,22.3 -0.3,1.4 -0.6,3 -0.6,4.5 h 51.3 c 5.3,0 7.7,2.2 7.7,6.3 v 0.9 c 0,4.2 -2.3,6.6 -7.7,6.6 h -56.3 c -7.2,0 -10.1,-2.3 -10.1,-8.7 z m 94.5,2.5 V 656 c 0,-4.5 2.5,-6.6 7.3,-6.6 h 16.9 v -72 c -6.1,4.8 -8.6,7.7 -11.6,10 -3.1,2.5 -5.6,3.4 -8.3,3.4 -5.3,0 -8.3,-4.5 -8.3,-9.8 l 30.2,-19.8 h 5.5 c 4.5,0 7.2,2.5 7.2,7.3 l -0.2,80.9 h 13.6 c 4.8,0 7.3,2 7.3,6.6 v 0.8 c 0,4.4 -2.5,6.3 -7.3,6.3 h -45 c -4.8,-0.1 -7.3,-1.9 -7.3,-6.3 z"
   class="st1" />
</g>
</svg>
