<?xml version="1.0" encoding="utf-8"?>
<!-- Generator: Adobe Illustrator 24.0.1, SVG Export Plug-In . SVG Version: 6.00 Build 0)  -->
<svg version="1.1" id="Layer_1" xmlns="http://www.w3.org/2000/svg" xmlns:xlink="http://www.w3.org/1999/xlink" x="0px" y="0px"
	 viewBox="0 0 1920 1080" style="enable-background:new 0 0 1920 1080;" xml:space="preserve">
<style type="text/css">
	.st0{fill:#FFFFFF;}
	.st1{opacity:0.7;fill:#FFFFFF;}
</style>
<g>
	<path class="st0" d="M772.4,455.9H825c-4.6-10-14.6-16.9-26.3-16.9S777,445.9,772.4,455.9 M798.7,520.9c-29.2,0-53-23.8-53-53
		c0-29.2,23.8-53,53-53c29.2,0,53,23.8,53,53c0,6.6-5.4,12-12,12h-67.2c4.6,10,14.6,16.9,26.3,16.9c6.6,0,12,5.4,12,12
		S805.3,520.9,798.7,520.9"/>
	<path class="st0" d="M956.9,520.2c-6.6,0-12-5.4-12-12v-40.3c0-15.9-13-28.9-28.9-28.9c-15.9,0-28.9,13-28.9,28.9v40.3
		c0,6.6-5.4,12-12,12c-6.6,0-12-5.4-12-12v-40.3c0-29.2,23.8-53,53-53c29.2,0,53,23.8,53,53v40.3C969,514.8,963.6,520.2,956.9,520.2
		"/>
	<path class="st0" d="M1131.1,520.2c-29.2,0-53-23.8-53-53V427c0-6.6,5.4-12,12-12c6.7,0,12,5.4,12,12v40.3
		c0,15.9,13,28.9,28.9,28.9c15.9,0,28.9-13,28.9-28.9V427c0-6.6,5.4-12,12-12s12,5.4,12,12v40.3
		C1184.1,496.4,1160.3,520.2,1131.1,520.2"/>
	<path class="st0" d="M1031.8,458.1c-17-3.6-23.8-5.1-23.8-11.3c0-6.2,8.7-9.6,18.3-9.6c5.1,0,9.9,1.2,13.9,2.8
		c1.6,0.6,3.2,1.1,5,1.1c6.2,0,11.2-5,11.2-11.2c0-5.1-3.3-9.5-7.9-10.9c-6-2.2-13.6-4-22.2-4c-27.6,0-43.4,15.7-43.4,31.5
		c0,19.1,17.4,27.6,37.4,31.9c15.3,3.2,20,4.5,20,11.1c0,6.2-8.7,9.1-19.1,9.1c-9.4,0-16.4-3.8-22.6-7c-0.1,0,0,0,0,0
		c-1.3-0.5-3-1-4.5-1c-6.3,0-11.4,5.1-11.4,11.4c0,4.5,2.6,8.4,6.4,10.2c7.7,4.4,18.7,8.7,33,8.7c25.7,0,44-13.8,44-31.1
		C1066,469,1051.8,462.4,1031.8,458.1"/>
	<path class="st0" d="M1245.4,458.1c-17-3.6-23.8-5.1-23.8-11.3c0-6.2,8.7-9.6,18.3-9.6c5.1,0,9.9,1.2,13.9,2.8
		c1.6,0.6,3.2,1.1,5,1.1c6.2,0,11.2-5,11.2-11.2c0-5.1-3.3-9.3-7.9-10.9c-6-2.2-13.6-4-22.2-4c-27.6,0-43.4,15.7-43.4,31.5
		c0,19.1,17.4,27.6,37.4,31.9c15.3,3.2,20,4.5,20,11.1c0,6.2-8.7,9.1-19.1,9.1c-9.4,0-16.6-3.9-22.9-7.1c-0.1-0.1,0,0,0,0
		c-1.3-0.5-2.8-0.9-4.3-0.9c-6.3,0-11.4,5.1-11.4,11.4c0,4.5,2.7,8.3,6.4,10.2c7.7,4.4,18.7,8.7,33,8.7c25.7,0,44-13.8,44-31.1
		C1279.6,469,1265.4,462.4,1245.4,458.1"/>
	<path class="st0" d="M693.4,520.9c-29.2,0-53-23.8-53-53c0-29.2,23.8-53,53-53c14.6,0,28.7,6.2,38.7,16.9c4.5,4.9,4.3,12.5-0.6,17
		c-4.9,4.5-12.5,4.3-17-0.6c-5.5-6-13.1-9.2-21.1-9.2c-15.9,0-28.9,13-28.9,28.9c0,15.9,13,28.9,28.9,28.9c8.1,0,15.6-3.3,21.1-9.3
		c4.5-4.9,12.1-5.1,17-0.6c4.9,4.5,5.1,12.1,0.6,17C722.1,514.7,708,520.9,693.4,520.9"/>
	<path class="st1" d="M648.8,654.3v-3.9c0-20.8,16.1-30,31.3-37.5c13.3-6.6,25.2-11.6,25.2-22.5c0-10.5-7.7-16.7-20.6-16.7
		c-14.8,0-21.9,9.1-24.7,19.4c0,0.5-10.6,0.6-10.6-7.8c0-5.3,3.1-11.6,9.2-16.6c6.1-5,15.3-8.8,27.2-8.8c22,0,35.3,11.4,35.3,30.2
		c0,18.1-14.4,25.3-29.7,32.3c-13.3,5.9-24.2,11.6-26.9,22.3c-0.3,1.4-0.6,3-0.6,4.5h51.3c5.3,0,7.7,2.2,7.7,6.3v0.9
		c0,4.2-2.3,6.6-7.7,6.6h-56.3C651.8,663,648.8,660.7,648.8,654.3z M734,617.7v-10.3c0-29.2,16.1-47.5,42-47.5
		c26.3,0,42.2,18.1,42.2,47.3v10.2c0,29.2-16.1,47.7-42.2,47.7C749.8,665.1,734,647,734,617.7z M802.1,618.2v-11.3
		c0-21.3-9.7-33.8-26.1-33.8c-16.4,0-25.8,12.2-25.8,33.4V618c0,21.3,9.5,33.4,25.8,33.4C792.8,651.5,802.1,639.4,802.1,618.2z
		 M831.7,654.3v-3.9c0-20.8,16.1-30,31.3-37.5c13.3-6.6,25.2-11.6,25.2-22.5c0-10.5-7.7-16.7-20.6-16.7c-14.8,0-21.9,9.1-24.7,19.4
		c0,0.5-10.6,0.6-10.6-7.8c0-5.3,3.1-11.6,9.2-16.6c6.1-5,15.3-8.8,27.2-8.8c22,0,35.3,11.4,35.3,30.2c0,18.1-14.4,25.3-29.7,32.3
		c-13.3,5.9-24.2,11.6-26.9,22.3c-0.3,1.4-0.6,3-0.6,4.5h51.3c5.3,0,7.7,2.2,7.7,6.3v0.9c0,4.2-2.3,6.6-7.7,6.6h-56.3
		C834.6,663,831.7,660.7,831.7,654.3z M926.2,656.8V656c0-4.5,2.5-6.6,7.3-6.6h16.9v-72c-6.1,4.8-8.6,7.7-11.6,10
		c-3.1,2.5-5.6,3.4-8.3,3.4c-5.3,0-8.3-4.5-8.3-9.8l30.2-19.8h5.5c4.5,0,7.2,2.5,7.2,7.3l-0.2,80.9h13.6c4.8,0,7.3,2,7.3,6.6v0.8
		c0,4.4-2.5,6.3-7.3,6.3h-45C928.7,663,926.2,661.2,926.2,656.8z"/>
</g>
</svg>
