<?xml version="1.0" encoding="UTF-8"?>
<svg width="256px" height="50px" viewBox="0 0 256 50" version="1.1" xmlns="http://www.w3.org/2000/svg" xmlns:xlink="http://www.w3.org/1999/xlink">
    <!-- Generator: sketchtool 55.1 (78136) - https://sketchapp.com -->
    <title>4FD64404-63E9-43AD-BDB6-80621B09BDE0</title>
    <desc>Created with sketchtool.</desc>
    <defs>
        <polygon id="path-1" points="0.0898245614 0.0180072029 255.121216 0.0180072029 255.121216 50 0.0898245614 50"></polygon>
    </defs>
    <g id="Symbols" stroke="none" stroke-width="1" fill="none" fill-rule="evenodd">
        <g id="Beta/footer" transform="translate(-50.000000, -50.000000)">
            <g id="ONS_PMS_English" transform="translate(50.000000, 50.000000)">
                <path d="M69.0112649,5.41318571 C65.4365411,5.41318571 64.168866,9.34474082 64.168866,12.9501761 C64.168866,16.5042778 65.3208883,20.4131857 69.0112649,20.4131857 C72.7256732,20.4131857 73.832636,16.5042778 73.832636,12.9501761 C73.832636,9.34474082 72.5859886,5.41318571 69.0112649,5.41318571 Z M69.0112649,22 C64.168866,22 62,17.9672874 62,13 C62,8.08555611 64.168866,4 69.0112649,4 C73.8551658,4 76,8.08555611 76,13 C76,17.9672874 73.8551658,22 69.0112649,22 L69.0112649,22 Z" id="Fill-1" fill="#003C58"></path>
                <path d="M82.0945736,9.13097143 L82.0945736,21 L80.0713178,21 L80.0713178,9.13097143 L78,9.13097143 L78,7.97142857 L80.0713178,7.97142857 L80.0713178,6.08518095 C80.0713178,3.71687619 81.5705426,2 84.5224806,2 C84.7364341,2 85,2.02460952 85,2.02460952 L85,3.23337143 L84.7612403,3.23337143 C83.3565891,3.23337143 82.0945736,4.07878095 82.0945736,5.86659048 L82.0945736,7.97142857 L85,7.97142857 L85,9.13097143 L82.0945736,9.13097143" id="Fill-2" fill="#003C58"></path>
                <path d="M90.0945736,9.13097143 L90.0945736,21 L88.0713178,21 L88.0713178,9.13097143 L86,9.13097143 L86,7.97142857 L88.0713178,7.97142857 L88.0713178,6.08518095 C88.0713178,3.71687619 89.5705426,2 92.524031,2 C92.7364341,2 93,2.02460952 93,2.02460952 L93,3.23337143 L92.7612403,3.23337143 C91.3565891,3.23337143 90.0945736,4.07878095 90.0945736,5.86659048 L90.0945736,7.97142857 L93,7.97142857 L93,9.13097143 L90.0945736,9.13097143" id="Fill-3" fill="#003C58"></path>
                <path d="M95.2037372,22 L96.7950573,22 L96.7950573,8.8719611 L95.2037372,8.8719611 L95.2037372,22 Z M96.0006028,6.363047 C95.4448463,6.363047 95,5.85105348 95,5.19319287 C95,4.53533225 95.4448463,4 96.0006028,4 C96.5551537,4 97,4.53533225 97,5.19319287 C97,5.85105348 96.5551537,6.363047 96.0006028,6.363047 L96.0006028,6.363047 Z" id="Fill-4" fill="#003C58"></path>
                <path d="M105.648173,22 C102.457807,22 100,19.2753869 100,14.988128 C100,10.6266695 102.457807,8 105.716944,8 C107.346512,8 108.425914,8.44668221 109,8.91710833 L108.494684,10.1072716 C108.05814,9.78376086 107.231395,9.38753445 106.153488,9.38753445 C103.420598,9.38753445 102.021262,11.741149 102.021262,14.9139283 C102.021262,18.1846513 103.628405,20.5145219 106.084718,20.5145219 C107.093854,20.5145219 107.920598,20.1672673 108.472259,19.7947848 L109,21.0843757 C108.425914,21.5548018 107.277741,22 105.648173,22" id="Fill-5" fill="#003C58"></path>
                <path d="M115.600579,9.26436294 C113.489146,9.26436294 111.712012,10.9486962 111.733719,14.6913292 L119.13314,13.6495654 C119.13314,10.5524698 117.688857,9.26436294 115.600579,9.26436294 Z M111.821997,15.8058088 C112.06657,18.9533602 113.756874,20.5397498 116.400868,20.5397498 C118.001447,20.5397498 119.222865,20.1168115 119.93343,19.7205851 L120.489146,21.0843757 C119.667149,21.5548018 118.134588,22 116.267728,22 C112.600579,22 110,19.7695569 110,14.9629001 C110,10.3788425 112.400868,8 115.667149,8 C118.978292,8 121,10.0820437 121,14.5414458 L111.821997,15.8058088 L111.821997,15.8058088 Z" id="Fill-6" fill="#003C58"></path>
                <path d="M134.096124,9.13097143 L134.096124,21 L132.071318,21 L132.071318,9.13097143 L130,9.13097143 L130,7.97142857 L132.071318,7.97142857 L132.071318,6.08518095 C132.071318,3.71687619 133.572093,2 136.524031,2 C136.736434,2 137,2.02460952 137,2.02460952 L137,3.23337143 L136.76124,3.23337143 C135.356589,3.23337143 134.096124,4.07878095 134.096124,5.86659048 L134.096124,7.97142857 L137,7.97142857 L137,9.13097143 L134.096124,9.13097143" id="Fill-7" fill="#003C58"></path>
                <path d="M144.509256,9.31333475 C141.712621,9.31333475 140.902395,12.262031 140.902395,15.0133559 C140.902395,17.7631969 141.778123,20.5887216 144.509256,20.5887216 C147.308738,20.5887216 148.11754,17.7631969 148.11754,15.0133559 C148.11754,12.262031 147.308738,9.31333475 144.509256,9.31333475 Z M144.509256,22 C140.727249,22 139,18.9533602 139,15.0133559 C139,11.0733517 140.727249,8 144.509256,8 C148.29411,8 150,11.0733517 150,15.0133559 C150,18.9533602 148.29411,22 144.509256,22 L144.509256,22 Z" id="Fill-8" fill="#003C58"></path>
                <path d="M158.526353,9.59774355 C157.359803,9.26817097 155.654954,9.3182903 154.856641,9.85137774 L154.856641,22 L153,22 L153,8.93859839 C154.336613,8.33109134 155.677442,8 158.049895,8 C158.373155,8 158.806044,8 159,8.02581905 L158.526353,9.59774355" id="Fill-9" fill="#003C58"></path>
                <path d="M72.6424945,49 L65.3274834,37.3598538 C64.7764901,36.4956476 64.3790287,35.6329213 64.3790287,35.6329213 L64.3359823,35.6329213 C64.3359823,35.6329213 64.4019868,36.6199513 64.4019868,37.6572946 L64.4019868,49 L62,49 L62,32 L64.7104857,32 L71.6509934,42.9461177 C72.2679912,43.9094708 72.6209713,44.7011664 72.6209713,44.7011664 L72.6640177,44.7011664 C72.6640177,44.7011664 72.5764901,43.7363336 72.5764901,42.7226671 L72.5764901,32 L75,32 L75,49 L72.6424945,49" id="Fill-10" fill="#003C58"></path>
                <path d="M87.2900068,42.2946768 C83.9593474,42.6421631 81.7324269,43.2587664 81.7324269,45.8286861 C81.7324269,47.6267427 83.0186268,48.3941698 85.039157,48.3941698 C85.9813732,48.3941698 86.7845003,48.1960287 87.2900068,47.9490917 L87.2900068,42.2946768 Z M84.8088375,50 C80.8605031,50 79,48.4429658 79,45.8981834 C79,42.3212928 82.7883073,41.3557245 87.2900068,40.9638783 L87.2900068,40.1979299 C87.2900068,38.3703 86.0277362,37.8246726 84.1896669,37.8246726 C82.8810333,37.8246726 81.3884432,38.1958175 80.5374575,38.5935784 L79.8719239,36.9626109 C80.81414,36.569286 82.5819171,36 84.7176071,36 C87.7027872,36 90,37.2080693 90,40.6163921 L90,49.0373891 C88.8513936,49.6051965 87.0387492,50 84.8088375,50 L84.8088375,50 Z" id="Fill-11" fill="#003C58"></path>
                <path d="M97.4960438,50 C94.8133496,50 93.7879895,48.2354943 93.7879895,46.4738812 L93.7879895,38.3831887 L92,38.3831887 L92,36.6938914 L93.7879895,36.6938914 L93.7879895,33.7723328 L96.5147089,33 L96.5147089,36.6938914 L99,36.6938914 L99,38.3831887 L96.5147089,38.3831887 L96.5147089,46.3306959 C96.5147089,47.3431172 97.1026577,48.1400374 98.2586732,48.1400374 C98.5199838,48.1400374 98.7386894,48.0908627 99,48.0199932 L99,49.7338778 C98.7386894,49.8553684 98.1933455,50 97.4960438,50" id="Fill-12" fill="#003C58"></path>
                <path d="M101.206066,49 L103.793934,49 L103.793934,36.0988293 L101.206066,36.0988293 L101.206066,49 Z M102.5,33.8726607 C101.678412,33.8726607 101,33.2276021 101,32.4377638 C101,31.6479255 101.678412,31 102.5,31 C103.321588,31 104,31.6479255 104,32.4377638 C104,33.2276021 103.321588,33.8726607 102.5,33.8726607 L102.5,33.8726607 Z" id="Fill-13" fill="#003C58"></path>
                <path d="M112.012416,37.8246726 C109.589044,37.8246726 108.87182,40.3945923 108.87182,42.9881707 C108.87182,45.5787917 109.634327,48.0481622 112.012416,48.0481622 C114.434327,48.0481622 115.151552,45.5787917 115.151552,42.9881707 C115.151552,40.3945923 114.434327,37.8246726 112.012416,37.8246726 Z M112.012416,50 C107.996835,50 106,46.9864808 106,43.0118293 C106,39.0386565 107.996835,36 112.012416,36 C116.026537,36 118,39.0386565 118,43.0118293 C118,46.9864808 116.026537,50 112.012416,50 L112.012416,50 Z" id="Fill-14" fill="#003C58"></path>
                <path d="M129.159728,50 L129.159728,40.2527615 C129.159728,38.5046567 127.718308,37.8466537 126.094876,37.8466537 C125.215639,37.8466537 124.35842,38.0240416 123.818255,38.251462 L123.818255,50 L121,50 L121,36.9870045 C122.240326,36.4305826 124.177876,36 126.251935,36 C129.701361,36 132,37.214425 132,40.202729 L132,50 L129.159728,50" id="Fill-15" fill="#003C58"></path>
                <path d="M143.290007,42.2946768 C139.959347,42.6421631 137.732427,43.2587664 137.732427,45.8286861 C137.732427,47.6267427 139.018627,48.3941698 141.040653,48.3941698 C141.981373,48.3941698 142.7845,48.1960287 143.290007,47.9490917 L143.290007,42.2946768 Z M140.810333,50 C136.860503,50 135,48.4429658 135,45.8981834 C135,42.3212928 138.788307,41.3557245 143.290007,40.9638783 L143.290007,40.1979299 C143.290007,38.3703 142.027736,37.8246726 140.191162,37.8246726 C138.882529,37.8246726 137.388443,38.1958175 136.538953,38.5935784 L135.873419,36.9626109 C136.81414,36.569286 138.581917,36 140.717607,36 C143.702787,36 146,37.2080693 146,40.6163921 L146,49.0373891 C144.852889,49.6051965 143.037254,50 140.810333,50 L140.810333,50 Z" id="Fill-16" fill="#003C58"></path>
                <polygon id="Fill-17" fill="#003C58" points="149 49 152 49 152 30 149 30"></polygon>
                <path d="M164.81423,50 C162.690802,50 160.967151,49.5438655 160,49.0199883 L160.825692,46.9064147 C161.534526,47.3083549 162.855326,47.7358869 164.225328,47.7358869 C166.279564,47.7358869 167.74336,46.5556578 167.74336,44.8455298 C167.74336,41.0504307 160.398239,42.5091578 160.398239,37.1288785 C160.398239,34.3875554 162.666201,32 166.254962,32 C168.167738,32 169.6792,32.5043071 170.504892,32.9815171 L169.74993,34.8662708 C169.110288,34.4899222 167.88482,34.0608848 166.657814,34.0608848 C164.745038,34.0608848 163.49343,35.1929414 163.49343,36.8022079 C163.49343,40.5220373 171,38.9127708 171,44.6423016 C171,47.7102952 168.427593,50 164.81423,50" id="Fill-18" fill="#003C58"></path>
                <path d="M177.495739,50 C174.8125,50 173.786932,48.2354943 173.786932,46.4738812 L173.786932,38.3831887 L172,38.3831887 L172,36.6938914 L173.786932,36.6938914 L173.786932,33.7723328 L176.514205,33 L176.514205,36.6938914 L179,36.6938914 L179,38.3831887 L176.514205,38.3831887 L176.514205,46.3306959 C176.514205,47.3431172 177.103693,48.1400374 178.258523,48.1400374 C178.521307,48.1400374 178.738636,48.0908627 179,48.0199932 L179,49.7338778 C178.738636,49.8553684 178.193182,50 177.495739,50" id="Fill-19" fill="#003C58"></path>
                <path d="M190.28888,42.2946768 C186.960169,42.6421631 184.733551,43.2587664 184.733551,45.8286861 C184.733551,47.6267427 186.019576,48.3941698 188.039831,48.3941698 C188.980424,48.3941698 189.786433,48.1960287 190.28888,47.9490917 L190.28888,42.2946768 Z M187.809543,50 C183.86025,50 182,48.4429658 182,45.8981834 C182,42.3212928 185.790783,41.3557245 190.28888,40.9638783 L190.28888,40.1979299 C190.28888,38.3703 189.026781,37.8246726 187.188961,37.8246726 C185.880506,37.8246726 184.388119,38.1958175 183.538744,38.5935784 L182.871805,36.9626109 C183.815389,36.569286 185.582926,36 187.718325,36 C190.7031,36 193,37.2080693 193,40.6163921 L193,49.0373891 C191.850054,49.6051965 190.037656,50 187.809543,50 L187.809543,50 Z" id="Fill-20" fill="#003C58"></path>
                <path d="M200.497159,50 C197.81392,50 196.786932,48.2354943 196.786932,46.4738812 L196.786932,38.3831887 L195,38.3831887 L195,36.6938914 L196.786932,36.6938914 L196.786932,33.7723328 L199.514205,33 L199.514205,36.6938914 L202,36.6938914 L202,38.3831887 L199.514205,38.3831887 L199.514205,46.3306959 C199.514205,47.3431172 200.102273,48.1400374 201.259943,48.1400374 C201.519886,48.1400374 201.740057,48.0908627 202,48.0199932 L202,49.7338778 C201.740057,49.8553684 201.194602,50 200.497159,50" id="Fill-21" fill="#003C58"></path>
                <path d="M204.204728,49 L206.795272,49 L206.795272,36.0988293 L204.204728,36.0988293 L204.204728,49 Z M205.498662,33.8726607 C204.678412,33.8726607 204,33.2276021 204,32.4377638 C204,31.6479255 204.678412,31 205.498662,31 C206.321588,31 207,31.6479255 207,32.4377638 C207,33.2276021 206.321588,33.8726607 205.498662,33.8726607 L205.498662,33.8726607 Z" id="Fill-22" fill="#003C58"></path>
                <path d="M212.923336,50 C211.306656,50 209.77514,49.5297845 209,49.0373891 L209.731836,47.2082805 C210.286127,47.6030841 211.393264,47.9978876 212.569687,47.9978876 C213.987169,47.9978876 215.118845,47.0618927 215.118845,45.926278 C215.118845,42.7648923 209.421492,44.2450359 209.421492,39.9021969 C209.421492,37.9252218 211.150762,36 213.965517,36 C215.561989,36 216.736969,36.4199409 217.621812,36.9626109 L216.891419,38.6157583 C216.469928,38.3200253 215.605293,37.8512886 214.519808,37.8512886 C213.07923,37.8512886 212.1915,38.7399662 212.1915,39.751373 C212.1915,42.7160963 218,41.4059992 218,45.8508661 C218,47.974229 216.026784,50 212.923336,50" id="Fill-23" fill="#003C58"></path>
                <path d="M225.496044,50 C222.81477,50 221.787989,48.2354943 221.787989,46.4738812 L221.787989,38.3831887 L220,38.3831887 L220,36.6938914 L221.787989,36.6938914 L221.787989,33.7723328 L224.514709,33 L224.514709,36.6938914 L227,36.6938914 L227,38.3831887 L224.514709,38.3831887 L224.514709,46.3306959 C224.514709,47.3431172 225.102658,48.1400374 226.258673,48.1400374 C226.519984,48.1400374 226.738689,48.0908627 227,48.0199932 L227,49.7338778 C226.738689,49.8553684 226.193346,50 225.496044,50" id="Fill-24" fill="#003C58"></path>
                <path d="M230.205974,49 L232.792688,49 L232.792688,36.0988293 L230.205974,36.0988293 L230.205974,49 Z M231.499331,33.8726607 C230.676772,33.8726607 230,33.2276021 230,32.4377638 C230,31.6479255 230.676772,31 231.499331,31 C232.320553,31 233,31.6479255 233,32.4377638 C233,33.2276021 232.320553,33.8726607 231.499331,33.8726607 L231.499331,33.8726607 Z" id="Fill-25" fill="#003C58"></path>
                <path d="M241.631317,50 C238.43735,50 236,47.3310097 236,42.9881707 C236,38.5935784 238.505214,36 241.652976,36 C243.271619,36 244.357452,36.4687368 244.978341,36.9626109 L244.357452,38.5654837 C243.958928,38.2697507 243.248516,37.9252218 242.317183,37.9252218 C240.055992,37.9252218 238.882079,39.9243768 238.882079,42.9127588 C238.882079,45.952894 240.233595,47.9490917 242.273865,47.9490917 C243.160436,47.9490917 243.826087,47.6267427 244.312691,47.2822138 L245,49.0373891 C244.423873,49.5297845 243.293278,50 241.631317,50" id="Fill-26" fill="#003C58"></path>
                <g id="Group-31">
                    <mask id="mask-2" fill="white">
                        <use xlink:href="#path-1"></use>
                    </mask>
                    <g id="Clip-28"></g>
                    <path d="M249.856,49.69988 C248.177778,49.69988 246.590877,49.2226891 245.786947,48.7229892 L246.545965,46.8667467 C247.120842,47.267407 248.269099,47.6680672 249.487719,47.6680672 C250.957848,47.6680672 252.131556,46.7181873 252.131556,45.5657263 C252.131556,42.357443 246.224094,43.8595438 246.224094,39.4522809 C246.224094,37.4459784 248.016094,35.4921969 250.936889,35.4921969 C252.592655,35.4921969 253.809778,35.9183673 254.73048,36.4690876 L253.969965,38.1467587 C253.534316,37.8466387 252.637567,37.3709484 251.510269,37.3709484 C250.016187,37.3709484 249.096982,38.2728091 249.096982,39.2992197 C249.096982,42.3079232 255.121216,40.9783914 255.121216,45.4891957 C255.121216,47.6440576 253.074713,49.69988 249.856,49.69988" id="Fill-27" fill="#003C58" mask="url(#mask-2)"></path>
                    <path d="M4.67087719,0.0180070658 C4.67087719,0.0180070658 0.0119766082,0.0075030012 0.0119766082,5.80132053 C0.0119766082,6.17947179 0.0104795322,7.29591837 0.0104795322,8.87605042 C0.455111111,14.1776711 1.54049123,19.3397359 3.39237427,24.1146459 C6.00327485,19.9834934 9.12916959,16.2304922 12.9437193,12.9606843 C20.4934737,6.47959184 30.6631111,1.98979592 44.4601637,0.0180070658 L4.67087719,0.0180070658 Z M0,30.3046218 C0.75302924,28.7394958 1.54348538,27.2013806 2.4102924,25.7217887 C1.41473684,23.3403361 0.627274854,20.8628451 0.00449122807,18.3238295 C0.00149707602,22.4579832 0,26.8592437 0,30.3046218 L0,30.3046218 Z" id="Fill-29" fill="#ABB52A" mask="url(#mask-2)"></path>
                    <path d="M9.09773099,36.7361945 C7.28327485,34.6053421 5.72930994,32.2989196 4.39990643,29.8679472 C2.71120468,33.0747299 1.2740117,36.5246098 0.0119766082,40.1695678 C0.0119766082,45.8463385 0.0119766082,49.917467 0.0119766082,49.917467 L31.5538713,49.9744898 C21.7165848,47.6065426 14.3449825,42.9021609 9.09773099,36.7361945 Z M49.6669942,3.17977191 C33.8818246,4.68787515 23.1043743,9.20468187 15.3824561,15.8178271 C11.2385497,19.3697479 7.95396491,23.562425 5.2637193,28.2938175 C11.3193918,40.0765306 22.8603509,48.7304922 42.1187368,49.9954982 L43.993076,50 C43.993076,50 49.9125146,50.1995798 49.9125146,43.6014406 L49.9125146,3.1317527 C49.8346667,3.1497599 49.7508304,3.17076831 49.6669942,3.17977191 L49.6669942,3.17977191 Z" id="Fill-30" fill="#003C58" mask="url(#mask-2)"></path>
                </g>
            </g>
        </g>
    </g>
</svg>