<?xml version="1.0" encoding="UTF-8"?>
<svg width="201px" height="40px" viewBox="0 0 201 40" version="1.1" xmlns="http://www.w3.org/2000/svg" xmlns:xlink="http://www.w3.org/1999/xlink">
    <!-- Generator: sketchtool 55.1 (78136) - https://sketchapp.com -->
    <title>8198D149-BA6B-409D-B109-106C24B3CE89</title>
    <desc>Created with sketchtool.</desc>
    <defs>
        <polygon id="path-1" points="0.0705882353 0.814117647 39.2235294 0.814117647 39.2235294 40 0.0705882353 40"></polygon>
    </defs>
    <g id="Symbols" stroke="none" stroke-width="1" fill="none" fill-rule="evenodd">
        <g id="Beta/logo/white">
            <g id="ONS_White_English" transform="translate(-0.000000, 0.000000)">
                <g id="Group-4">
                    <mask id="mask-2" fill="white">
                        <use xlink:href="#path-1"></use>
                    </mask>
                    <g id="Clip-2"></g>
                    <path d="M3.67058824,0.81411754 C3.67058824,0.81411754 0.00941176471,0.805882353 0.00941176471,5.34823529 C0.00941176471,5.64470588 0.00823529412,6.52 0.00823529412,7.75882353 C0.357647059,11.9152941 1.21058824,15.9623529 2.66588235,19.7058824 C4.71764706,16.4670588 7.17411765,13.5247059 10.1717647,10.9611765 C16.1047059,5.88 24.0964706,2.36 34.9388235,0.81411754 L3.67058824,0.81411754 Z M0,24.5588235 C0.591764706,23.3317647 1.21294118,22.1258824 1.89411765,20.9658824 C1.11176471,19.0988235 0.492941176,17.1564706 0.00352941176,15.1658824 C0.00117647059,18.4070588 0,21.8576471 0,24.5588235 L0,24.5588235 Z" id="Fill-1" fill="#FFFFFE" mask="url(#mask-2)"></path>
                    <path d="M7.14941176,29.6011765 C5.72352941,27.9305882 4.50235294,26.1223529 3.45764706,24.2164706 C2.13058824,26.7305882 1.00117647,29.4352941 0.00941176471,32.2929412 C0.00941176471,36.7435294 0.00941176471,39.9352941 0.00941176471,39.9352941 L24.7964706,39.98 C17.0658824,38.1235294 11.2729412,34.4352941 7.14941176,29.6011765 Z M39.0305882,3.29294118 C26.6258824,4.47529412 18.1564706,8.01647059 12.0882353,13.2011765 C8.83176471,15.9858824 6.25058824,19.2729412 4.13647059,22.9823529 C8.89529412,32.22 17.9647059,39.0047059 33.0988235,39.9964706 L34.5717647,40 C34.5717647,40 39.2235294,40.1564706 39.2235294,34.9835294 L39.2235294,3.25529412 C39.1623529,3.26941176 39.0964706,3.28588235 39.0305882,3.29294118 L39.0305882,3.29294118 Z" id="Fill-3" fill="#FFFFFE" mask="url(#mask-2)"></path>
                </g>
                <path d="M54.2176471,5.39294118 C51.4176471,5.39294118 50.4247059,8.45647059 50.4247059,11.2658824 C50.4247059,14.0352941 51.3270588,17.0811765 54.2176471,17.0811765 C57.1270588,17.0811765 57.9941176,14.0352941 57.9941176,11.2658824 C57.9941176,8.45647059 57.0176471,5.39294118 54.2176471,5.39294118 Z M54.2176471,18.3176471 C50.4247059,18.3176471 48.7258824,15.1752941 48.7258824,11.3047059 C48.7258824,7.47529412 50.4247059,4.29176471 54.2176471,4.29176471 C58.0117647,4.29176471 59.6917647,7.47529412 59.6917647,11.3047059 C59.6917647,15.1752941 58.0117647,18.3176471 54.2176471,18.3176471 L54.2176471,18.3176471 Z" id="Fill-5" fill="#FFFFFE"></path>
                <path d="M64.4094118,8.41764706 L64.4094118,18.0635294 L62.8741176,18.0635294 L62.8741176,8.41764706 L61.3023529,8.41764706 L61.3023529,7.47529412 L62.8741176,7.47529412 L62.8741176,5.94235294 C62.8741176,4.01764706 64.0117647,2.62235294 66.2517647,2.62235294 C66.4141176,2.62235294 66.6141176,2.64235294 66.6141176,2.64235294 L66.6141176,3.62470588 L66.4329412,3.62470588 C65.3670588,3.62470588 64.4094118,4.31176471 64.4094118,5.76470588 L64.4094118,7.47529412 L66.6141176,7.47529412 L66.6141176,8.41764706 L64.4094118,8.41764706" id="Fill-6" fill="#FFFFFE"></path>
                <path d="M70.7517647,8.41764706 L70.7517647,18.0635294 L69.2164706,18.0635294 L69.2164706,8.41764706 L67.6447059,8.41764706 L67.6447059,7.47529412 L69.2164706,7.47529412 L69.2164706,5.94235294 C69.2164706,4.01764706 70.3541176,2.62235294 72.5952941,2.62235294 C72.7564706,2.62235294 72.9564706,2.64235294 72.9564706,2.64235294 L72.9564706,3.62470588 L72.7752941,3.62470588 C71.7094118,3.62470588 70.7517647,4.31176471 70.7517647,5.76470588 L70.7517647,7.47529412 L72.9564706,7.47529412 L72.9564706,8.41764706 L70.7517647,8.41764706" id="Fill-7" fill="#FFFFFE"></path>
                <path d="M74.7143254,18.0635294 L76.3056455,18.0635294 L76.3056455,7.47529412 L74.7143254,7.47529412 L74.7143254,18.0635294 Z M75.511191,5.45176471 C74.9554345,5.45176471 74.5105882,5.03882353 74.5105882,4.50823529 C74.5105882,3.97764706 74.9554345,3.54588235 75.511191,3.54588235 C76.0657419,3.54588235 76.5105882,3.97764706 76.5105882,4.50823529 C76.5105882,5.03882353 76.0657419,5.45176471 75.511191,5.45176471 L75.511191,5.45176471 Z" id="Fill-8" fill="#FFFFFE"></path>
                <path d="M82.8764706,18.3176471 C80.3658824,18.3176471 78.4317647,16.1576471 78.4317647,12.7588235 C78.4317647,9.30117647 80.3658824,7.21882353 82.9305882,7.21882353 C84.2129412,7.21882353 85.0623529,7.57294118 85.5141176,7.94588235 L85.1164706,8.88941176 C84.7729412,8.63294118 84.1223529,8.31882353 83.2741176,8.31882353 C81.1235294,8.31882353 80.0223529,10.1847059 80.0223529,12.7 C80.0223529,15.2929412 81.2870588,17.14 83.22,17.14 C84.0141176,17.14 84.6647059,16.8647059 85.0988235,16.5694118 L85.5141176,17.5917647 C85.0623529,17.9647059 84.1588235,18.3176471 82.8764706,18.3176471" id="Fill-9" fill="#FFFFFE"></path>
                <path d="M91.0976471,8.22117647 C89.3811765,8.22117647 87.9364706,9.55647059 87.9541176,12.5235294 L93.9694118,11.6976471 C93.9694118,9.24235294 92.7952941,8.22117647 91.0976471,8.22117647 Z M88.0258824,13.4070588 C88.2247059,15.9023529 89.5988235,17.16 91.7482353,17.16 C93.0494118,17.16 94.0423529,16.8247059 94.62,16.5105882 L95.0717647,17.5917647 C94.4035294,17.9647059 93.1576471,18.3176471 91.64,18.3176471 C88.6588235,18.3176471 86.5447059,16.5494118 86.5447059,12.7388235 C86.5447059,9.10470588 88.4964706,7.21882353 91.1517647,7.21882353 C93.8435294,7.21882353 95.4870588,8.86941176 95.4870588,12.4047059 L88.0258824,13.4070588 L88.0258824,13.4070588 Z" id="Fill-10" fill="#FFFFFE"></path>
                <path d="M105.318824,8.41764706 L105.318824,18.0635294 L103.782353,18.0635294 L103.782353,8.41764706 L102.210588,8.41764706 L102.210588,7.47529412 L103.782353,7.47529412 L103.782353,5.94235294 C103.782353,4.01764706 104.921176,2.62235294 107.161176,2.62235294 C107.322353,2.62235294 107.522353,2.64235294 107.522353,2.64235294 L107.522353,3.62470588 L107.341176,3.62470588 C106.275294,3.62470588 105.318824,4.31176471 105.318824,5.76470588 L105.318824,7.47529412 L107.522353,7.47529412 L107.522353,8.41764706 L105.318824,8.41764706" id="Fill-11" fill="#FFFFFE"></path>
                <path d="M113.14,8.26 C110.829412,8.26 110.16,10.5976471 110.16,12.7788235 C110.16,14.9588235 110.883529,17.1988235 113.14,17.1988235 C115.452941,17.1988235 116.121176,14.9588235 116.121176,12.7788235 C116.121176,10.5976471 115.452941,8.26 113.14,8.26 Z M113.14,18.3176471 C110.015294,18.3176471 108.588235,15.9023529 108.588235,12.7788235 C108.588235,9.65529412 110.015294,7.21882353 113.14,7.21882353 C116.267059,7.21882353 117.676471,9.65529412 117.676471,12.7788235 C117.676471,15.9023529 116.267059,18.3176471 113.14,18.3176471 L113.14,18.3176471 Z" id="Fill-12" fill="#FFFFFE"></path>
                <path d="M124.344706,8.45647059 C123.368235,8.20117647 121.941176,8.24 121.272941,8.65294118 L121.272941,18.0635294 L119.718824,18.0635294 L119.718824,7.94588235 C120.837647,7.47529412 121.96,7.21882353 123.945882,7.21882353 C124.216471,7.21882353 124.578824,7.21882353 124.741176,7.23882353 L124.344706,8.45647059" id="Fill-13" fill="#FFFFFE"></path>
                <path d="M57.7047059,39.4894118 L51.7070588,30.2352941 C51.2552941,29.5482353 50.9294118,28.8623529 50.9294118,28.8623529 L50.8941176,28.8623529 C50.8941176,28.8623529 50.9482353,29.6470588 50.9482353,30.4717647 L50.9482353,39.4894118 L48.9788235,39.4894118 L48.9788235,25.9741176 L51.2011765,25.9741176 L56.8917647,34.6764706 C57.3976471,35.4423529 57.6870588,36.0717647 57.6870588,36.0717647 L57.7223529,36.0717647 C57.7223529,36.0717647 57.6505882,35.3047059 57.6505882,34.4988235 L57.6505882,25.9741176 L59.6376471,25.9741176 L59.6376471,39.4894118 L57.7047059,39.4894118" id="Fill-14" fill="#FFFFFE"></path>
                <path d="M68.0588235,33.6341176 C65.4388235,33.9105882 63.6870588,34.4011765 63.6870588,36.4458824 C63.6870588,37.8764706 64.6988235,38.4870588 66.2882353,38.4870588 C67.0294118,38.4870588 67.6611765,38.3294118 68.0588235,38.1329412 L68.0588235,33.6341176 Z M66.1070588,39.7647059 C63.0011765,39.7647059 61.5376471,38.5258824 61.5376471,36.5011765 C61.5376471,33.6552941 64.5176471,32.8870588 68.0588235,32.5752941 L68.0588235,31.9658824 C68.0588235,30.5117647 67.0658824,30.0776471 65.62,30.0776471 C64.5905882,30.0776471 63.4164706,30.3729412 62.7470588,30.6894118 L62.2235294,29.3917647 C62.9647059,29.0788235 64.3552941,28.6258824 66.0352941,28.6258824 C68.3835294,28.6258824 70.1905882,29.5870588 70.1905882,32.2988235 L70.1905882,38.9988235 C69.2870588,39.4505882 67.8611765,39.7647059 66.1070588,39.7647059 L66.1070588,39.7647059 Z" id="Fill-15" fill="#FFFFFE"></path>
                <path d="M76.3329412,39.7247059 C74.1105882,39.7247059 73.2611765,38.2894118 73.2611765,36.8564706 L73.2611765,30.2752941 L71.78,30.2752941 L71.78,28.9011765 L73.2611765,28.9011765 L73.2611765,26.5247059 L75.52,25.8964706 L75.52,28.9011765 L77.5788235,28.9011765 L77.5788235,30.2752941 L75.52,30.2752941 L75.52,36.74 C75.52,37.5635294 76.0070588,38.2117647 76.9647059,38.2117647 C77.1811765,38.2117647 77.3623529,38.1717647 77.5788235,38.1141176 L77.5788235,39.5082353 C77.3623529,39.6070588 76.9105882,39.7247059 76.3329412,39.7247059" id="Fill-16" fill="#FFFFFE"></path>
                <path d="M79.3517647,39.4894118 L81.6270588,39.4894118 L81.6270588,28.9011765 L79.3517647,28.9011765 L79.3517647,39.4894118 Z M80.4894118,27.0741176 C79.7670588,27.0741176 79.1705882,26.5447059 79.1705882,25.8964706 C79.1705882,25.2482353 79.7670588,24.7164706 80.4894118,24.7164706 C81.2117647,24.7164706 81.8082353,25.2482353 81.8082353,25.8964706 C81.8082353,26.5447059 81.2117647,27.0741176 80.4894118,27.0741176 L80.4894118,27.0741176 Z" id="Fill-17" fill="#FFFFFE"></path>
                <path d="M88.4211765,30.0776471 C86.4694118,30.0776471 85.8917647,32.1223529 85.8917647,34.1858824 C85.8917647,36.2470588 86.5058824,38.2117647 88.4211765,38.2117647 C90.3717647,38.2117647 90.9494118,36.2470588 90.9494118,34.1858824 C90.9494118,32.1223529 90.3717647,30.0776471 88.4211765,30.0776471 Z M88.4211765,39.7647059 C85.1870588,39.7647059 83.5788235,37.3670588 83.5788235,34.2047059 C83.5788235,31.0435294 85.1870588,28.6258824 88.4211765,28.6258824 C91.6541176,28.6258824 93.2435294,31.0435294 93.2435294,34.2047059 C93.2435294,37.3670588 91.6541176,39.7647059 88.4211765,39.7647059 L88.4211765,39.7647059 Z" id="Fill-18" fill="#FFFFFE"></path>
                <path d="M101.647059,39.4894118 L101.647059,31.9258824 C101.647059,30.5694118 100.491765,30.0588235 99.1905882,30.0588235 C98.4858824,30.0588235 97.7988235,30.1964706 97.3658824,30.3729412 L97.3658824,39.4894118 L95.1070588,39.4894118 L95.1070588,29.3917647 C96.1011765,28.96 97.6541176,28.6258824 99.3164706,28.6258824 C102.081176,28.6258824 103.923529,29.5682353 103.923529,31.8870588 L103.923529,39.4894118 L101.647059,39.4894118" id="Fill-19" fill="#FFFFFE"></path>
                <path d="M112.235294,33.6341176 C109.615294,33.9105882 107.863529,34.4011765 107.863529,36.4458824 C107.863529,37.8764706 108.875294,38.4870588 110.465882,38.4870588 C111.205882,38.4870588 111.837647,38.3294118 112.235294,38.1329412 L112.235294,33.6341176 Z M110.284706,39.7647059 C107.177647,39.7647059 105.714118,38.5258824 105.714118,36.5011765 C105.714118,33.6552941 108.694118,32.8870588 112.235294,32.5752941 L112.235294,31.9658824 C112.235294,30.5117647 111.242353,30.0776471 109.797647,30.0776471 C108.768235,30.0776471 107.592941,30.3729412 106.924706,30.6894118 L106.401176,29.3917647 C107.141176,29.0788235 108.531765,28.6258824 110.211765,28.6258824 C112.56,28.6258824 114.367059,29.5870588 114.367059,32.2988235 L114.367059,38.9988235 C113.464706,39.4505882 112.036471,39.7647059 110.284706,39.7647059 L110.284706,39.7647059 Z" id="Fill-20" fill="#FFFFFE"></path>
                <polygon id="Fill-21" fill="#FFFFFE" points="116.7 39.4905882 118.958824 39.4905882 118.958824 24.0682353 116.7 24.0682353"></polygon>
                <path d="M129.708235,39.7647059 C128.083529,39.7647059 126.764706,39.4082353 126.024706,38.9988235 L126.656471,37.3470588 C127.198824,37.6611765 128.209412,37.9952941 129.257647,37.9952941 C130.829412,37.9952941 131.949412,37.0729412 131.949412,35.7364706 C131.949412,32.7705882 126.329412,33.9105882 126.329412,29.7058824 C126.329412,27.5635294 128.064706,25.6976471 130.810588,25.6976471 C132.274118,25.6976471 133.430588,26.0917647 134.062353,26.4647059 L133.484706,27.9376471 C132.995294,27.6435294 132.057647,27.3082353 131.118824,27.3082353 C129.655294,27.3082353 128.697647,28.1929412 128.697647,29.4505882 C128.697647,32.3576471 134.441176,31.1 134.441176,35.5776471 C134.441176,37.9752941 132.472941,39.7647059 129.708235,39.7647059" id="Fill-22" fill="#FFFFFE"></path>
                <path d="M140.171765,39.7247059 C137.949412,39.7247059 137.1,38.2894118 137.1,36.8564706 L137.1,30.2752941 L135.62,30.2752941 L135.62,28.9011765 L137.1,28.9011765 L137.1,26.5247059 L139.358824,25.8964706 L139.358824,28.9011765 L141.417647,28.9011765 L141.417647,30.2752941 L139.358824,30.2752941 L139.358824,36.74 C139.358824,37.5635294 139.847059,38.2117647 140.803529,38.2117647 C141.021176,38.2117647 141.201176,38.1717647 141.417647,38.1141176 L141.417647,39.5082353 C141.201176,39.6070588 140.749412,39.7247059 140.171765,39.7247059" id="Fill-23" fill="#FFFFFE"></path>
                <path d="M149.168235,33.6341176 C146.549412,33.9105882 144.797647,34.4011765 144.797647,36.4458824 C144.797647,37.8764706 145.809412,38.4870588 147.398824,38.4870588 C148.138824,38.4870588 148.772941,38.3294118 149.168235,38.1329412 L149.168235,33.6341176 Z M147.217647,39.7647059 C144.110588,39.7647059 142.647059,38.5258824 142.647059,36.5011765 C142.647059,33.6552941 145.629412,32.8870588 149.168235,32.5752941 L149.168235,31.9658824 C149.168235,30.5117647 148.175294,30.0776471 146.729412,30.0776471 C145.7,30.0776471 144.525882,30.3729412 143.857647,30.6894118 L143.332941,29.3917647 C144.075294,29.0788235 145.465882,28.6258824 147.145882,28.6258824 C149.494118,28.6258824 151.301176,29.5870588 151.301176,32.2988235 L151.301176,38.9988235 C150.396471,39.4505882 148.970588,39.7647059 147.217647,39.7647059 L147.217647,39.7647059 Z" id="Fill-24" fill="#FFFFFE"></path>
                <path d="M157.444706,39.7247059 C155.222353,39.7247059 154.371765,38.2894118 154.371765,36.8564706 L154.371765,30.2752941 L152.891765,30.2752941 L152.891765,28.9011765 L154.371765,28.9011765 L154.371765,26.5247059 L156.630588,25.8964706 L156.630588,28.9011765 L158.689412,28.9011765 L158.689412,30.2752941 L156.630588,30.2752941 L156.630588,36.74 C156.630588,37.5635294 157.117647,38.2117647 158.076471,38.2117647 C158.291765,38.2117647 158.474118,38.1717647 158.689412,38.1141176 L158.689412,39.5082353 C158.474118,39.6070588 158.022353,39.7247059 157.444706,39.7247059" id="Fill-25" fill="#FFFFFE"></path>
                <path d="M160.461176,39.4894118 L162.738824,39.4894118 L162.738824,28.9011765 L160.461176,28.9011765 L160.461176,39.4894118 Z M161.598824,27.0741176 C160.877647,27.0741176 160.281176,26.5447059 160.281176,25.8964706 C160.281176,25.2482353 160.877647,24.7164706 161.598824,24.7164706 C162.322353,24.7164706 162.918824,25.2482353 162.918824,25.8964706 C162.918824,26.5447059 162.322353,27.0741176 161.598824,27.0741176 L161.598824,27.0741176 Z" id="Fill-26" fill="#FFFFFE"></path>
                <path d="M167.670588,39.7647059 C166.352941,39.7647059 165.104706,39.3905882 164.472941,38.9988235 L165.069412,37.5435294 C165.521176,37.8576471 166.423529,38.1717647 167.382353,38.1717647 C168.537647,38.1717647 169.46,37.4270588 169.46,36.5235294 C169.46,34.0082353 164.816471,35.1858824 164.816471,31.7305882 C164.816471,30.1576471 166.225882,28.6258824 168.52,28.6258824 C169.821176,28.6258824 170.778824,28.96 171.5,29.3917647 L170.904706,30.7070588 C170.561176,30.4717647 169.856471,30.0988235 168.971765,30.0988235 C167.797647,30.0988235 167.074118,30.8058824 167.074118,31.6105882 C167.074118,33.9694118 171.808235,32.9270588 171.808235,36.4635294 C171.808235,38.1529412 170.2,39.7647059 167.670588,39.7647059" id="Fill-27" fill="#FFFFFE"></path>
                <path d="M177.556471,39.7247059 C175.335294,39.7247059 174.484706,38.2894118 174.484706,36.8564706 L174.484706,30.2752941 L173.003529,30.2752941 L173.003529,28.9011765 L174.484706,28.9011765 L174.484706,26.5247059 L176.743529,25.8964706 L176.743529,28.9011765 L178.802353,28.9011765 L178.802353,30.2752941 L176.743529,30.2752941 L176.743529,36.74 C176.743529,37.5635294 177.230588,38.2117647 178.188235,38.2117647 C178.404706,38.2117647 178.585882,38.1717647 178.802353,38.1141176 L178.802353,39.5082353 C178.585882,39.6070588 178.134118,39.7247059 177.556471,39.7247059" id="Fill-28" fill="#FFFFFE"></path>
                <path d="M180.575294,39.4894118 L182.850588,39.4894118 L182.850588,28.9011765 L180.575294,28.9011765 L180.575294,39.4894118 Z M181.712941,27.0741176 C180.989412,27.0741176 180.394118,26.5447059 180.394118,25.8964706 C180.394118,25.2482353 180.989412,24.7164706 181.712941,24.7164706 C182.435294,24.7164706 183.032941,25.2482353 183.032941,25.8964706 C183.032941,26.5447059 182.435294,27.0741176 181.712941,27.0741176 L181.712941,27.0741176 Z" id="Fill-29" fill="#FFFFFE"></path>
                <path d="M189.391765,39.7647059 C186.789412,39.7647059 184.803529,37.6411765 184.803529,34.1858824 C184.803529,30.6894118 186.844706,28.6258824 189.409412,28.6258824 C190.728235,28.6258824 191.612941,28.9988235 192.118824,29.3917647 L191.612941,30.6670588 C191.288235,30.4317647 190.709412,30.1576471 189.950588,30.1576471 C188.108235,30.1576471 187.151765,31.7482353 187.151765,34.1258824 C187.151765,36.5447059 188.252941,38.1329412 189.915294,38.1329412 C190.637647,38.1329412 191.18,37.8764706 191.576471,37.6023529 L192.136471,38.9988235 C191.667059,39.3905882 190.745882,39.7647059 189.391765,39.7647059" id="Fill-30" fill="#FFFFFE"></path>
                <path d="M196.348235,39.7647059 C195.029412,39.7647059 193.782353,39.3905882 193.150588,38.9988235 L193.747059,37.5435294 C194.198824,37.8576471 195.101176,38.1717647 196.058824,38.1717647 C197.214118,38.1717647 198.136471,37.4270588 198.136471,36.5235294 C198.136471,34.0082353 193.494118,35.1858824 193.494118,31.7305882 C193.494118,30.1576471 194.902353,28.6258824 197.197647,28.6258824 C198.498824,28.6258824 199.455294,28.96 200.178824,29.3917647 L199.581176,30.7070588 C199.238824,30.4717647 198.534118,30.0988235 197.648235,30.0988235 C196.474118,30.0988235 195.751765,30.8058824 195.751765,31.6105882 C195.751765,33.9694118 200.485882,32.9270588 200.485882,36.4635294 C200.485882,38.1529412 198.877647,39.7647059 196.348235,39.7647059" id="Fill-31" fill="#FFFFFE"></path>
            </g>
        </g>
    </g>
</svg>